<mxfile host="app.diagrams.net" agent="Mozilla/5.0 (X11; Linux x86_64; rv:136.0) Gecko/20100101 Firefox/136.0" version="26.2.14">
  <diagram name="Page-1" id="8ZavswJbXp6ytNf7wTdN">
    <mxGraphModel dx="988" dy="638" grid="1" gridSize="10" guides="1" tooltips="1" connect="1" arrows="1" fold="1" page="1" pageScale="1" pageWidth="850" pageHeight="1100" math="0" shadow="0">
      <root>
        <mxCell id="0" />
        <mxCell id="1" parent="0" />
        <mxCell id="RFI9QaKUs87qt_clIKEG-3" style="edgeStyle=orthogonalEdgeStyle;rounded=0;orthogonalLoop=1;jettySize=auto;html=1;" edge="1" parent="1" source="RFI9QaKUs87qt_clIKEG-1" target="RFI9QaKUs87qt_clIKEG-2">
          <mxGeometry relative="1" as="geometry" />
        </mxCell>
        <mxCell id="RFI9QaKUs87qt_clIKEG-1" value="Remove biggest number" style="rounded=0;whiteSpace=wrap;html=1;" vertex="1" parent="1">
          <mxGeometry x="160" y="110" width="120" height="60" as="geometry" />
        </mxCell>
        <mxCell id="RFI9QaKUs87qt_clIKEG-5" style="edgeStyle=orthogonalEdgeStyle;rounded=0;orthogonalLoop=1;jettySize=auto;html=1;" edge="1" parent="1" source="RFI9QaKUs87qt_clIKEG-2" target="RFI9QaKUs87qt_clIKEG-4">
          <mxGeometry relative="1" as="geometry" />
        </mxCell>
        <mxCell id="RFI9QaKUs87qt_clIKEG-2" value="Remove smallest number" style="rounded=0;whiteSpace=wrap;html=1;" vertex="1" parent="1">
          <mxGeometry x="360" y="110" width="120" height="60" as="geometry" />
        </mxCell>
        <mxCell id="RFI9QaKUs87qt_clIKEG-8" value="" style="edgeStyle=orthogonalEdgeStyle;rounded=0;orthogonalLoop=1;jettySize=auto;html=1;" edge="1" parent="1" source="RFI9QaKUs87qt_clIKEG-4" target="RFI9QaKUs87qt_clIKEG-7">
          <mxGeometry relative="1" as="geometry" />
        </mxCell>
        <mxCell id="RFI9QaKUs87qt_clIKEG-4" value="&lt;div&gt;Add remaining&lt;/div&gt;" style="rounded=0;whiteSpace=wrap;html=1;" vertex="1" parent="1">
          <mxGeometry x="560" y="110" width="120" height="60" as="geometry" />
        </mxCell>
        <mxCell id="RFI9QaKUs87qt_clIKEG-10" value="" style="edgeStyle=orthogonalEdgeStyle;rounded=0;orthogonalLoop=1;jettySize=auto;html=1;" edge="1" parent="1" source="RFI9QaKUs87qt_clIKEG-7" target="RFI9QaKUs87qt_clIKEG-9">
          <mxGeometry relative="1" as="geometry" />
        </mxCell>
        <mxCell id="RFI9QaKUs87qt_clIKEG-7" value="Divide by how many numbers there were" style="whiteSpace=wrap;html=1;rounded=0;" vertex="1" parent="1">
          <mxGeometry x="560" y="250" width="120" height="60" as="geometry" />
        </mxCell>
        <mxCell id="RFI9QaKUs87qt_clIKEG-12" value="" style="edgeStyle=orthogonalEdgeStyle;rounded=0;orthogonalLoop=1;jettySize=auto;html=1;" edge="1" parent="1" source="RFI9QaKUs87qt_clIKEG-9" target="RFI9QaKUs87qt_clIKEG-11">
          <mxGeometry relative="1" as="geometry" />
        </mxCell>
        <mxCell id="RFI9QaKUs87qt_clIKEG-9" value="Round to the nearest whole number" style="whiteSpace=wrap;html=1;rounded=0;" vertex="1" parent="1">
          <mxGeometry x="360" y="250" width="120" height="60" as="geometry" />
        </mxCell>
        <mxCell id="RFI9QaKUs87qt_clIKEG-11" value="Return the number" style="whiteSpace=wrap;html=1;rounded=0;" vertex="1" parent="1">
          <mxGeometry x="160" y="250" width="120" height="60" as="geometry" />
        </mxCell>
      </root>
    </mxGraphModel>
  </diagram>
</mxfile>
